<svg xmlns="http://www.w3.org/2000/svg" width="1600" height="900" viewBox="0 0 1600 900" fill="none">
  <defs>
    <linearGradient id="bg" x1="0" y1="0" x2="1" y2="1">
      <stop offset="0%" stop-color="#0f172a"/>
      <stop offset="100%" stop-color="#111827"/>
    </linearGradient>
    <linearGradient id="glow" x1="0" y1="0" x2="1" y2="1">
      <stop offset="0%" stop-color="#38bdf8" stop-opacity="0.55"/>
      <stop offset="100%" stop-color="#22c55e" stop-opacity="0.35"/>
    </linearGradient>
  </defs>

  <rect width="1600" height="900" fill="url(#bg)"/>
  <circle cx="240" cy="180" r="240" fill="url(#glow)" opacity="0.6"/>
  <circle cx="1420" cy="740" r="260" fill="#0ea5e9" opacity="0.12"/>
  <rect x="120" y="110" width="640" height="480" rx="32" fill="#0b1220" stroke="#1f2937" stroke-width="2"/>

  <text x="190" y="210" fill="#e2e8f0" font-size="46" font-family="Poppins, Arial, sans-serif" font-weight="600">QR Generator</text>
  <text x="190" y="270" fill="#94a3b8" font-size="22" font-family="Poppins, Arial, sans-serif">Business-ready codes, cards, and flows</text>
  <rect x="190" y="330" width="260" height="56" rx="14" fill="#1f2937" stroke="#334155" stroke-width="2"/>
  <text x="215" y="366" fill="#e2e8f0" font-size="18" font-family="Poppins, Arial, sans-serif">qr.linart.club</text>

  <g transform="translate(880 200)">
    <rect width="420" height="420" rx="28" fill="#0b1220" stroke="#1f2937" stroke-width="2"/>
    <g fill="#e2e8f0">
      <rect x="30" y="30" width="90" height="90" rx="12"/>
      <rect x="50" y="50" width="50" height="50" rx="8" fill="#0b1220"/>
      <rect x="64" y="64" width="22" height="22" rx="4"/>

      <rect x="300" y="30" width="90" height="90" rx="12"/>
      <rect x="320" y="50" width="50" height="50" rx="8" fill="#0b1220"/>
      <rect x="334" y="64" width="22" height="22" rx="4"/>

      <rect x="30" y="300" width="90" height="90" rx="12"/>
      <rect x="50" y="320" width="50" height="50" rx="8" fill="#0b1220"/>
      <rect x="64" y="334" width="22" height="22" rx="4"/>

      <rect x="160" y="140" width="18" height="18"/>
      <rect x="190" y="140" width="18" height="18"/>
      <rect x="220" y="140" width="18" height="18"/>
      <rect x="250" y="140" width="18" height="18"/>
      <rect x="160" y="170" width="18" height="18"/>
      <rect x="210" y="170" width="18" height="18"/>
      <rect x="250" y="170" width="18" height="18"/>
      <rect x="160" y="200" width="18" height="18"/>
      <rect x="190" y="200" width="18" height="18"/>
      <rect x="220" y="200" width="18" height="18"/>
      <rect x="250" y="200" width="18" height="18"/>
      <rect x="140" y="230" width="18" height="18"/>
      <rect x="180" y="230" width="18" height="18"/>
      <rect x="240" y="230" width="18" height="18"/>
      <rect x="270" y="230" width="18" height="18"/>
      <rect x="140" y="260" width="18" height="18"/>
      <rect x="200" y="260" width="18" height="18"/>
      <rect x="260" y="260" width="18" height="18"/>
      <rect x="140" y="290" width="18" height="18"/>
      <rect x="180" y="290" width="18" height="18"/>
      <rect x="220" y="290" width="18" height="18"/>
      <rect x="260" y="290" width="18" height="18"/>

      <rect x="120" y="120" width="14" height="14"/>
      <rect x="120" y="150" width="14" height="14"/>
      <rect x="120" y="180" width="14" height="14"/>
      <rect x="120" y="210" width="14" height="14"/>
      <rect x="120" y="240" width="14" height="14"/>
      <rect x="120" y="270" width="14" height="14"/>
      <rect x="120" y="300" width="14" height="14"/>

      <rect x="300" y="160" width="16" height="16"/>
      <rect x="330" y="160" width="16" height="16"/>
      <rect x="360" y="160" width="16" height="16"/>
      <rect x="300" y="190" width="16" height="16"/>
      <rect x="330" y="190" width="16" height="16"/>
      <rect x="360" y="190" width="16" height="16"/>
      <rect x="300" y="220" width="16" height="16"/>
      <rect x="330" y="220" width="16" height="16"/>
    </g>
  </g>
</svg>
